<svg width="500" height="500" viewBox="0 0 500 500" fill="none" xmlns="http://www.w3.org/2000/svg">
<path d="M405.31 87.809C388.39 70.7303 360.959 70.7303 344.039 87.809C328.875 103.115 327.314 126.935 339.325 144.009L287.871 195.942C278.765 189.55 267.714 185.8 255.806 185.8C242.909 185.8 231.011 190.205 221.508 197.595L185.368 161.116C192.96 148.17 191.246 131.206 180.224 120.079C167.166 106.899 146.001 106.904 132.948 120.079C119.89 133.255 119.89 154.624 132.948 167.799C144.004 178.959 160.876 180.665 173.716 172.921L210.031 209.577C204.64 217.158 201.057 226.13 199.907 235.847H143.923C140.208 215.5 122.555 200.084 101.329 200.089C77.3996 200.089 58 219.671 58 243.825C58 267.979 77.3949 287.561 101.329 287.561C122.309 287.561 139.801 272.507 143.796 252.524H200.357C204.55 276.559 223.756 295.429 247.813 298.897V358.231C227.556 361.9 212.184 379.762 212.184 401.264C212.184 425.418 231.584 445 255.513 445C279.442 445 298.841 425.418 298.841 401.264C298.841 380.158 284.032 362.549 264.33 358.441V298.816C291.349 294.66 312.117 271.046 312.117 242.63C312.117 229.311 307.554 217.053 299.925 207.355L351.266 155.531C368.044 166.428 390.633 164.479 405.314 149.66C422.229 132.582 422.229 104.888 405.31 87.809ZM255.806 282.263C234.158 282.263 216.548 264.486 216.548 242.635C216.548 220.784 234.158 203.008 255.806 203.008C277.454 203.008 295.064 220.784 295.064 242.635C295.064 264.486 277.454 282.263 255.806 282.263Z" fill="#61C0BF"/>
</svg>
